<?xml version="1.0" encoding="UTF-8" standalone="no"?>
<svg width="24px" height="24px" viewBox="0 0 24 24" version="1.1" xmlns="http://www.w3.org/2000/svg" xmlns:xlink="http://www.w3.org/1999/xlink">
    <!-- Generator: Sketch 46.2 (44496) - http://www.bohemiancoding.com/sketch -->
    <title>Shape</title>
    <desc>Created with Sketch.</desc>
    <defs></defs>
    <g id="规范整理" stroke="none" stroke-width="1" fill="none" fill-rule="evenodd">
        <g transform="translate(-901.000000, -193.000000)" id="Shape" fill="#108EE9">
            <path d="M913,217 C906.371875,217 901,211.628125 901,205 C901,198.371875 906.371875,193 913,193 C919.628125,193 925,198.371875 925,205 C925,211.628125 919.628125,217 913,217 L913,217 Z M913,212.5 C913.414844,212.5 913.75,212.164844 913.75,211.75 C913.75,211.335156 913.414844,211 913,211 C912.585156,211 912.25,211.335156 912.25,211.75 C912.25,212.164844 912.585156,212.5 913,212.5 L913,212.5 Z M915.238281,197.5 L913.714844,197.5 L912.214844,197.5 L910.761719,197.5 C910.346875,197.5 910.011719,197.835156 910.011719,198.25 C910.011719,198.664844 910.346875,199 910.761719,199 L912.214844,199 L912.214844,206.558594 L910.738281,206.558594 C910.323437,206.558594 909.988281,206.89375 909.988281,207.308594 C909.988281,207.723437 910.323437,208.058594 910.738281,208.058594 L912.214844,208.058594 L912.964844,208.058594 C913.379688,208.058594 913.714844,207.723437 913.714844,207.308594 L913.714844,199 L915.238281,199 C915.653125,199 916.011719,198.664844 916.011719,198.25 C916.011719,197.835156 915.653125,197.5 915.238281,197.5 L915.238281,197.5 Z" transform="translate(913.000000, 205.000000) scale(1, -1) translate(-913.000000, -205.000000) "></path>
        </g>
    </g>
</svg>