<?xml version="1.0" encoding="UTF-8" standalone="no"?>
<svg width="12px" height="8px" viewBox="0 0 12 8" version="1.1" xmlns="http://www.w3.org/2000/svg" xmlns:xlink="http://www.w3.org/1999/xlink">
    <!-- Generator: Sketch 46.2 (44496) - http://www.bohemiancoding.com/sketch -->
    <title>Shape Copy</title>
    <desc>Created with Sketch.</desc>
    <defs></defs>
    <g id="规范整理" stroke="none" stroke-width="1" fill="none" fill-rule="evenodd">
        <g transform="translate(-864.000000, -67.000000)" id="Shape-Copy" fill="#666666">
            <path d="M866.684194,65 C866.834422,65 866.986216,65.0500442 867.112971,65.1501326 L873.744925,70.4814025 C873.906107,70.6112046 874,70.8066897 874,71.0146859 C874,71.2211181 873.906107,71.4181671 873.744925,71.5464054 L867.141138,76.8495254 C866.846941,77.0856714 866.4166,77.038755 866.180303,76.7447454 C865.944007,76.4507358 865.990953,76.0206686 866.28515,75.7845226 L872.225428,71.013122 L866.255417,66.2151354 C865.96122,65.9789894 865.914274,65.5489222 866.150571,65.2549126 C866.286715,65.0875773 866.48389,65 866.684194,65 Z" transform="translate(870.000000, 71.000000) rotate(-270.000000) translate(-870.000000, -71.000000) "></path>
        </g>
    </g>
</svg>