<?xml version="1.0" encoding="UTF-8" standalone="no"?>
<svg width="24px" height="24px" viewBox="0 0 24 24" version="1.1" xmlns="http://www.w3.org/2000/svg" xmlns:xlink="http://www.w3.org/1999/xlink">
    <!-- Generator: Sketch 46.2 (44496) - http://www.bohemiancoding.com/sketch -->
    <title>Shape</title>
    <desc>Created with Sketch.</desc>
    <defs></defs>
    <g id="规范整理" stroke="none" stroke-width="1" fill="none" fill-rule="evenodd">
        <g transform="translate(-999.000000, -193.000000)" id="Shape" fill="#F04134">
            <path d="M1011,193 C1004.37188,193 999,198.371875 999,205 C999,211.628125 1004.37188,217 1011,217 C1017.62812,217 1023,211.628125 1023,205 C1023,198.371875 1017.62812,193 1011,193 L1011,193 Z M1016.64844,209.483594 C1016.94375,209.774219 1016.94844,210.247656 1016.66016,210.545312 L1016.66016,210.545312 C1016.36953,210.840625 1015.89609,210.845312 1015.59844,210.557031 L1011,206.05 L1006.40156,210.554688 C1006.10625,210.845312 1005.63047,210.840625 1005.33984,210.542969 L1005.33984,210.542969 C1005.04922,210.247656 1005.05391,209.771875 1005.35156,209.48125 L1009.92891,205 L1005.35156,200.516406 C1005.05625,200.225781 1005.05156,199.752344 1005.33984,199.454688 L1005.33984,199.454688 C1005.63047,199.159375 1006.10391,199.154687 1006.40156,199.442969 L1011,203.95 L1015.59844,199.445312 C1015.89375,199.154687 1016.36953,199.159375 1016.66016,199.457031 L1016.66016,199.457031 C1016.95078,199.752344 1016.94609,200.228125 1016.64844,200.51875 L1012.07109,205 L1016.64844,209.483594 L1016.64844,209.483594 Z"></path>
        </g>
    </g>
</svg>