<?xml version="1.0" encoding="UTF-8" standalone="no"?>
<svg width="12px" height="12px" viewBox="0 0 12 12" version="1.1" xmlns="http://www.w3.org/2000/svg" xmlns:xlink="http://www.w3.org/1999/xlink">
    <!-- Generator: Sketch 46.2 (44496) - http://www.bohemiancoding.com/sketch -->
    <title>Shape</title>
    <desc>Created with Sketch.</desc>
    <defs></defs>
    <g id="规范整理" stroke="none" stroke-width="1" fill="none" fill-rule="evenodd">
        <g transform="translate(-888.000000, -66.000000)" id="Shape" fill="#1D93EF">
            <path d="M894,78 C890.685938,78 888,75.3140625 888,72 C888,68.6859375 890.685938,66 894,66 C897.314062,66 900,68.6859375 900,72 C900,75.3140625 897.314062,78 894,78 L894,78 Z M897.535227,68.4647727 C897.076136,68.0056818 896.540909,67.6443182 895.945455,67.3931818 C895.329545,67.1318182 894.675,67 894,67 C893.325,67 892.670455,67.1318182 892.054545,67.3920455 C891.459091,67.6443182 890.925,68.0045455 890.464773,68.4636364 C890.005682,68.9227273 889.644318,69.4579545 889.393182,70.0534091 C889.131818,70.6704545 889,71.325 889,72 C889,72.675 889.131818,73.3295455 889.392045,73.9454545 C889.644318,74.5409091 890.004545,75.075 890.463636,75.5352273 C890.922727,75.9943182 891.457955,76.3556818 892.053409,76.6068182 C892.670455,76.8681818 893.325,77 894,77 C894.675,77 895.329545,76.8681818 895.945455,76.6079545 C896.540909,76.3556818 897.075,75.9954545 897.535227,75.5363636 C897.994318,75.0772727 898.355682,74.5420455 898.606818,73.9465909 C898.868182,73.3295455 899,72.675 899,72 C899,71.325 898.868182,70.6704545 898.607955,70.0545455 C898.355682,69.4590909 897.995455,68.9238636 897.535227,68.4647727 L897.535227,68.4647727 Z M893.902956,70.0022099 C893.682485,70.0232044 893.522142,70.2187844 893.543298,70.4375687 C893.597859,70.9889495 894.005397,71.434253 894.454134,71.8795565 C895.172336,72.5922631 895.184584,72.8187823 895.196832,73.0585611 C895.211308,73.3381189 895.107753,73.6088369 894.902871,73.8220964 C894.670151,74.0651901 894.340558,74.2044166 893.998716,74.2044166 C893.338416,74.2033116 892.801713,73.6707153 892.801713,73.0165722 C892.801713,72.7966829 892.622441,72.6187825 892.400857,72.6187825 C892.179272,72.6187825 892,72.7966829 892,73.0165722 C892,73.5458535 892.207109,74.0430907 892.583469,74.4176761 C892.959829,74.7922614 893.4609,74.9988911 893.994262,74.999996 C894.556575,75.001101 895.099959,74.7712669 895.484113,74.3701623 C895.841544,73.9966819 896.024156,73.5160193 895.997432,73.0165722 C895.969595,72.5049704 895.811479,72.1016558 895.020901,71.317126 C894.620044,70.9193363 894.367282,70.620994 894.341671,70.3591157 C894.321629,70.153591 894.14681,70 893.943042,70 C893.92968,70 893.916318,70.001105 893.902956,70.0022099 Z M893,68.5 C893,68.6786328 893.095299,68.8436963 893.25,68.9330127 C893.404701,69.0223291 893.595299,69.0223291 893.75,68.9330127 C893.904701,68.8436963 894,68.6786328 894,68.5 C894,68.2238576 893.776142,68 893.5,68 C893.223858,68 893,68.2238576 893,68.5 L893,68.5 Z" transform="translate(894.000000, 72.000000) scale(1, -1) translate(-894.000000, -72.000000) "></path>
        </g>
    </g>
</svg>