<?xml version="1.0" encoding="UTF-8" standalone="no"?>
<svg width="24px" height="24px" viewBox="0 0 24 24" version="1.1" xmlns="http://www.w3.org/2000/svg" xmlns:xlink="http://www.w3.org/1999/xlink">
    <!-- Generator: Sketch 46.2 (44496) - http://www.bohemiancoding.com/sketch -->
    <title>Shape Copy 2</title>
    <desc>Created with Sketch.</desc>
    <defs></defs>
    <g id="规范整理" stroke="none" stroke-width="1" fill="none" fill-rule="evenodd">
        <g transform="translate(-1041.000000, -193.000000)" id="Shape-Copy-2" fill="#FFBF00">
            <path d="M1053,217 C1046.37188,217 1041,211.628125 1041,205 C1041,198.371875 1046.37188,193 1053,193 C1059.62812,193 1065,198.371875 1065,205 C1065,211.628125 1059.62812,217 1053,217 L1053,217 Z M1053.75,198.25 C1053.75,197.835156 1053.41484,197.5 1053,197.5 L1053,197.5 C1052.58516,197.5 1052.25,197.835156 1052.25,198.25 L1052.25,198.25 C1052.25,198.664844 1052.58516,199 1053,199 L1053,199 C1053.41484,199 1053.75,198.664844 1053.75,198.25 L1053.75,198.25 L1053.75,198.25 Z M1053.75,201.25 C1053.75,200.835156 1053.41484,200.5 1053,200.5 L1053,200.5 C1052.58516,200.5 1052.25,200.835156 1052.25,201.25 L1052.25,211.75 C1052.25,212.164844 1052.58516,212.5 1053,212.5 L1053,212.5 C1053.41484,212.5 1053.75,212.164844 1053.75,211.75 L1053.75,201.25 L1053.75,201.25 Z" transform="translate(1053.000000, 205.000000) scale(1, -1) translate(-1053.000000, -205.000000) "></path>
        </g>
    </g>
</svg>