<?xml version="1.0" encoding="UTF-8" standalone="no"?>
<svg width="24px" height="24px" viewBox="0 0 24 24" version="1.1" xmlns="http://www.w3.org/2000/svg" xmlns:xlink="http://www.w3.org/1999/xlink">
    <!-- Generator: Sketch 46.2 (44496) - http://www.bohemiancoding.com/sketch -->
    <title>iconfont-checkcircle</title>
    <desc>Created with Sketch.</desc>
    <defs></defs>
    <g id="规范整理" stroke="none" stroke-width="1" fill="none" fill-rule="evenodd">
        <g transform="translate(-950.000000, -193.000000)" id="iconfont-checkcircle" fill="#3DBD7D">
            <path d="M962.005839,193 C955.375032,193 950,198.368469 950,204.991179 C950,211.61389 955.375032,216.982359 962.005839,216.982359 C968.636645,216.982359 974.011677,211.61389 974.011677,204.991179 C974.011677,198.368469 968.636645,193 962.005839,193 L962.005839,193 Z M969.263345,201.812278 L959.513095,211.290403 C959.219697,211.583443 958.743276,211.583443 958.449878,211.290403 L954.724861,207.734095 C954.431462,207.441055 954.431462,206.965099 954.724861,206.672059 C955.018259,206.379018 955.494797,206.379018 955.788196,206.672059 L958.982689,209.698608 L968.200098,200.75033 C968.493496,200.457289 968.969946,200.457289 969.263345,200.75033 C969.556743,201.04337 969.556743,201.519238 969.263345,201.812278 L969.263345,201.812278 Z"></path>
        </g>
    </g>
</svg>