<?xml version="1.0" encoding="UTF-8" standalone="no"?>
<svg width="12px" height="8px" viewBox="0 0 12 8" version="1.1" xmlns="http://www.w3.org/2000/svg" xmlns:xlink="http://www.w3.org/1999/xlink">
    <!-- Generator: Sketch 46.2 (44496) - http://www.bohemiancoding.com/sketch -->
    <title>Shape</title>
    <desc>Created with Sketch.</desc>
    <defs></defs>
    <g id="规范整理" stroke="none" stroke-width="1" fill="none" fill-rule="evenodd">
        <g transform="translate(-841.000000, -67.000000)" id="Shape" fill="#666666">
            <path d="M843.684194,65 C843.834422,65 843.986216,65.0500442 844.112971,65.1501326 L850.744925,70.4814025 C850.906107,70.6112046 851,70.8066897 851,71.0146859 C851,71.2211181 850.906107,71.4181671 850.744925,71.5464054 L844.141138,76.8495254 C843.846941,77.0856714 843.4166,77.038755 843.180303,76.7447454 C842.944007,76.4507358 842.990953,76.0206686 843.28515,75.7845226 L849.225428,71.013122 L843.255417,66.2151354 C842.96122,65.9789894 842.914274,65.5489222 843.150571,65.2549126 C843.286715,65.0875773 843.48389,65 843.684194,65 Z" transform="translate(847.000000, 71.000000) rotate(-90.000000) translate(-847.000000, -71.000000) "></path>
        </g>
    </g>
</svg>